<?xml version="1.0" standalone="no"?>
<!DOCTYPE svg PUBLIC "-//W3C//DTD SVG 20010904//EN"
 "http://www.w3.org/TR/2001/REC-SVG-20010904/DTD/svg10.dtd">
<svg version="1.0" xmlns="http://www.w3.org/2000/svg"
 width="512.000000pt" height="512.000000pt" viewBox="0 0 512.000000 512.000000"
 preserveAspectRatio="xMidYMid meet">

<g transform="translate(0.000000,512.000000) scale(0.100000,-0.100000)"
fill="#000000" stroke="none">
<path d="M195 2711 c-69 -17 -134 -70 -171 -141 -18 -33 -19 -74 -19 -850 0
-776 1 -817 19 -850 26 -49 74 -98 121 -123 l40 -22 2375 0 2375 0 40 22 c47
25 95 74 121 123 18 33 19 74 19 850 0 776 -1 817 -19 850 -26 49 -74 98 -121
123 l-40 22 -2355 2 c-1295 0 -2368 -2 -2385 -6z m2050 -326 c57 -25 108 -73
136 -127 23 -45 49 -149 49 -200 0 -42 10 -38 -149 -58 -129 -16 -121 -19
-121 48 0 105 -55 167 -115 128 -35 -23 -48 -61 -42 -125 8 -73 31 -104 184
-242 216 -195 266 -279 267 -454 1 -94 -1 -105 -32 -167 -71 -144 -207 -208
-401 -187 -167 18 -270 114 -307 288 -7 36 -14 85 -14 107 l0 42 88 12 c48 7
106 16 129 20 l41 7 7 -56 c15 -127 43 -178 105 -187 56 -9 73 11 78 90 6 99
-23 152 -146 263 -170 154 -228 217 -264 290 -31 64 -33 73 -33 178 0 94 4
118 24 163 46 103 167 183 296 195 75 7 169 -5 220 -28z m848 25 c209 -30 300
-153 301 -405 l1 -110 -150 0 -150 0 -5 126 c-4 105 -8 131 -24 147 -41 46
-131 32 -155 -25 -8 -21 -11 -139 -9 -450 l3 -421 24 -26 c18 -19 35 -26 62
-26 82 0 93 19 99 180 l5 125 154 3 154 3 -6 -118 c-14 -302 -123 -415 -399
-414 -149 0 -222 24 -298 99 -108 106 -124 197 -117 664 4 350 9 390 64 490
69 128 240 188 446 158z m-1737 -47 c4 -21 62 -330 129 -688 l121 -650 -139
-3 c-77 -1 -141 -1 -143 1 -2 2 -14 66 -26 143 l-23 139 -97 3 -96 3 -6 -28
c-3 -15 -12 -71 -21 -123 -8 -52 -18 -105 -20 -117 -5 -23 -8 -23 -150 -23
-80 0 -145 2 -145 4 0 6 249 1328 255 1354 5 22 7 22 180 22 l174 0 7 -37z
m2512 -655 l-3 -693 -150 0 -150 0 -3 693 -2 692 155 0 155 0 -2 -692z m510 0
l-3 -693 -150 0 -150 0 -3 693 -2 692 155 0 155 0 -2 -692z"/>
<path d="M1142 1754 c-18 -137 -33 -252 -32 -256 0 -5 31 -8 68 -8 l68 0 -33
243 c-18 133 -34 248 -35 256 -2 7 -18 -98 -36 -235z"/>
</g>
</svg>
